<svg fill="none" height="24" viewBox="0 0 18 24" width="18" xmlns="http://www.w3.org/2000/svg"><path d="m17.13 9.52c-.15.04-.31.07-.42-.05-.14-.14-.13-.32-.04-.47.08-.14.18-.27.27-.41.03-.04.06-.09.1-.12.28-.3.4-.65.33-1.06-.02-.11 0-.22-.01-.33 0-.04-.02-.07-.03-.11-.03.01-.08.01-.11.03-.09.06-.16.13-.25.2-.19.15-.35.13-.51-.05-.02-.03-.04-.07-.04-.11.02-.19.04-.38.09-.56.05-.2.13-.39.19-.58s.04-.38-.03-.56c-.08-.23-.17-.46-.27-.71-.07.1-.13.19-.19.29-.15.25-.26.32-.44.28-.16-.04-.25-.18-.26-.44s-.01-.52-.02-.78c-.01-.33-.12-.62-.37-.85-.1-.1-.18-.21-.28-.33-.03.07-.07.14-.1.23-.03.07-.04.15-.07.23-.08.24-.34.3-.52.13-.07-.09-.13-.19-.17-.29-.09-.24-.17-.49-.24-.74-.05-.17-.13-.31-.29-.41-.21-.14-.41-.29-.61-.44-.02-.02-.05-.02-.1-.04v.49c-.01.28-.16.4-.42.28-.14-.06-.27-.18-.37-.3-.19-.23-.36-.47-.54-.71-.03-.04-.07-.07-.11-.09-.27-.1-.55-.190004-.83-.280004-.03-.01-.07-.01-.1-.02.05.190004.11.370004.14.550004.05.29-.17.48-.44.36-.19-.08-.36-.21-.53-.32-.1-.07-.19-.15-.29-.23-.15-.13-.32-.210004-.53-.200004-.27.010004-.54 0-.83 0 .07.090004.13.170004.18.250004.06.1.13.19.17.3.09.22-.06.41-.29.43h-7.479999v21.19h4.829999v-7.44h.98l4.86 7.44h5.63l-5.42-7.68c.05-.01.1-.01.15 0 .2.03.4.08.59.14.19.05.37.13.55.18.04.01.1.02.14.01.32-.1.63-.21.97-.32-.07-.05-.13-.11-.2-.16-.08-.05-.16-.09-.24-.14-.12-.08-.16-.2-.13-.34s.12-.23.26-.25c.11-.02.22-.03.33-.03.17 0 .35-.01.52 0 .35.02.65-.1.9-.34.12-.12.26-.22.4-.33-.04-.02-.09-.04-.13-.06-.12-.04-.23-.08-.35-.13-.26-.13-.3-.34-.08-.54.11-.09.26-.15.39-.2.21-.07.43-.12.63-.19.21-.08.38-.22.5-.42.04-.06.07-.12.11-.18.07-.13.14-.26.22-.41-.08.01-.14.01-.21.01-.12 0-.24.01-.36-.01-.24-.04-.35-.27-.2-.47.13-.17.3-.31.46-.45.15-.12.31-.22.47-.32.11-.07.17-.17.2-.3.07-.26.16-.52.24-.79.01-.02.01-.05.02-.08-.11.06-.24.12-.37.15zm-5.71-.41c0 1.41-.92 2.8-3.04 2.8h-3.08v-5.72h3.2c1.96 0 2.92 1.51 2.92 2.92z" fill="#45a4bc"/></svg>