<svg fill="none" height="43" viewBox="0 0 164 43" width="164" xmlns="http://www.w3.org/2000/svg"><g fill="#1f2937"><path d="m1.00952 40.3473h1.54582c0 .433.43293.7688.96577.7688.50232 0 .88528-.2554.88528-.6994 0-.2664-.14707-.5106-.74929-.7077l-.8076-.247c-1.49585-.4052-1.78168-1.321-1.78168-1.9593 0-1.2211 1.04349-2.0786 2.39225-2.0786 1.2988 0 2.29508.777 2.29508 2.098h-1.54579c0-.4051-.24701-.7493-.77707-.7493-.48289 0-.79649.3247-.79649.6994 0 .1388.03886.444.66884.6189l.70769.2275c.96578.2942 1.95096.7882 1.95096 2.0176 0 1.457-1.25995 2.1064-2.50048 2.1064-1.44867.0028-2.45329-.8437-2.45329-2.0953z"/><path d="m8.13077 42.3261v-6.7826h1.54578v6.7826z"/><path d="m14.9051 35.5435c1.9593 0 3.0916 1.4764 3.0916 3.4079 0 1.9205-1.1323 3.3775-3.0916 3.3775h-2.6781v-6.7827h2.6781zm0 5.4339c1.0129 0 1.5347-.9742 1.5347-2.0287 0-1.0629-.5218-2.0593-1.5347-2.0593h-1.1323v4.0852h1.1323z"/><path d="m20.1725 42.3261v-6.7826h1.5458v6.7826z"/><path d="m27.8515 35.5435h1.5458v6.7826h-1.3598l-2.2258-3.8992v3.8992h-1.5458v-6.7826h1.4182l2.1647 3.8492v-3.8492z"/><path d="m31.5453 38.9403c0-1.9288 1.5264-3.5162 3.4857-3.5162 1.074 0 2.0093.4523 2.6004 1.1628l-1.1434.9547c-.3635-.4246-.877-.68-1.457-.68-1.0934 0-1.9288.9464-1.9288 2.0759 0 1.1129.8187 2.1258 1.9788 2.1258.7576 0 1.5957-.4218 1.5957-1.0934h-1.9093v-1.2516h3.5939c0 2.5698-1.4265 3.7215-3.2387 3.7215-2.0897.0056-3.5773-1.5902-3.5773-3.4995z"/><path d="m13.3204 31.0116-5.63644-8.6338h-1.14061v8.6338h-5.600418v-24.5802h10.060168c5.7087 0 8.2785 4.0657 8.2785 8.1342 0 3.4607-2.5698 6.7798-5.7447 7.4931l6.3136 8.9556h-6.5301zm-6.77705-19.693v6.6355h3.56895c2.4616 0 3.5328-1.6068 3.5328-3.247 0-1.6401-1.1045-3.3885-3.3885-3.3885z"/><path d="m27.857 26.1244h10.4904v4.8871h-16.0907v-24.5801h15.7688v4.8872h-10.1685v5.0647h8.9196v5.0315h-8.9196z"/><path d="m46.9229 26.1244h9.025v4.8871h-14.6282v-24.5801h5.6004v19.693z"/><path d="m58.687 31.0115v-24.5801h5.6004v24.5801z"/><path d="m85.1571 31.0115-1.8538-5.7086h-8.6338l-1.8205 5.7086h-5.9945l9.0972-24.5801h6.0999l9.0611 24.5801zm-8.9556-10.5597h5.531l-2.7836-8.6698z"/><path d="m106.596 6.4314h5.6v24.5801h-4.923l-8.0621-14.1286v14.1286h-5.6004v-24.5801h5.1369l7.8486 13.9483z"/><path d="m153.439 26.1244h10.49v4.8871h-16.091v-24.5801h15.769v4.8872h-10.168v5.0647h8.919v5.0315h-8.919z"/><path d="m140.048 36.0486c-.055.0472-.108.0943-.169.1415l-1.648 1.2988-.084-1.4375h-.769c-.485.6438-1.143 1.0767-1.978 1.2599-.322.0694-.644.1471-.972.2248l-2.542.5994.863-2.0841h-.019c-.008.0083-.017.0138-.025.0222-1.068 1.0074-2.226 1.4181-3.536 1.2571-.088-.0111-.249.0084-.408.0222-.122.0139-.247.025-.374.0333l-.491.0306-.347-.3469c-.247-.2443-.411-.6134-.386-1.0185h-85.8294v5.6142h122.6094v-5.6142h-23.895z"/></g><path d="m143.695 26.4463c-.003 0-.003 0 0 0l-4.632-3.2248c-1.365 2.1258-3.377 3.4163-6.15 3.4163-4.479 0-7.515-3.6439-7.515-7.9705s3.15-7.8566 7.554-7.8566c2.734 0 4.746 1.2904 6.111 3.4163l4.632-3.2248c-.006-.0084-.011-.0167-.02-.025l.014.0083c-.008-.0055-.016-.0167-.025-.025-.033-.0472-.066-.0916-.1-.1387-.28-.5135-.513-2.02041.6-3.10552.111-.16374.325-.28862.516-.36356.347-.13876.713-.22756 1.11-.35245-.621-.44681-1.171-.86309-1.743-1.24885-.18-.12211-.408-.22201-.619-.23311-.61-.03608-1.221-.00833-1.834-.02776-.402-.01387-.802-.06383-1.135-.33025-.391-.31083-.408-.67993-.025-1.00741.189-.16374.408-.29139.605-.44681.13-.10268.247-.22201.364-.33025-.403-.15264-.764-.27197-1.108-.42738-.41-.18317-.841-.32748-1.282-.23867-.652.13321-1.29.34412-1.937.50786-.336.08603-.683.19982-1.021.19149-.553-.01387-.783-.4024-.58-.91859.094-.23867.252-.45237.397-.66883.119-.18039.258-.34414.416-.55783-.672 0-1.282.0222-1.89-.00832-.475-.0222-.858.14986-1.216.42738-.222.17207-.427.36633-.66.52175-.391.25809-.774.54394-1.202.72988-.61.26642-1.11-.16096-.988-.81314.078-.41628.206-.82424.317-1.257172-.075.011101-.156.013869-.228.036071-.627.208141-1.254.416291-1.876.638311-.094.0333-.186.11377-.247.19426-.405.53561-.783 1.09898-1.216 1.6124-.233.27475-.527.54117-.849.68826-.585.26642-.927.0111-.943-.63275-.009-.35801-.003-.71323-.003-1.10731-.103.0444-.172.06383-.228.10268-.463.33025-.913.68548-1.393.99353-.355.22756-.538.54117-.655.9297-.172.56614-.347 1.13507-.555 1.68734-.086.22757-.233.45235-.408.61887-.411.3913-.988.23589-1.179-.29695-.061-.16929-.092-.34968-.153-.51897-.067-.18594-.155-.36077-.222-.51341-.23.2692-.416.53006-.644.74653-.558.53007-.816 1.1767-.83 1.93711-.011.5939-.016 1.1878-.041 1.77892-.028.59945-.225.91585-.597 1.00745-.402.0999-.666-.0694-1.002-.6328-.13-.21924-.28-.42738-.433-.65217-.219.57447-.433 1.09347-.616 1.62077-.141.4135-.191.8436-.058 1.2738.139.4412.319.8686.433 1.3154.103.4136.144.8437.2 1.2711.011.0777-.028.1832-.081.2414-.358.4052-.735.4385-1.163.1083-.191-.1471-.369-.3109-.563-.4496-.067-.0472-.164-.05-.244-.0749-.022.0804-.059.1609-.064.2442-.011.2497.022.5078-.019.7493-.167.9352.113 1.7206.738 2.4089.08.0888.158.1831.225.283.21.3053.444.5967.618.9214.195.3553.231.7521-.069 1.0685-.266.2803-.633.2137-.963.1221-.302-.0833-.594-.2137-.919-.333.017.0749.025.1304.042.1859.186.5939.391 1.1823.55 1.7845.077.2914.213.5106.457.6744.358.2414.736.4579 1.066.7326.375.3081.761.6272 1.049 1.013.333.4496.092.9658-.455 1.0629-.261.0472-.536.0222-.805.0222-.144 0-.291-.0194-.466-.0305.183.3302.344.6272.508.9213.078.1416.153.2831.239.4191.274.4385.654.7687 1.137.9436.469.1693.963.2692 1.435.4385.314.1137.65.2386.897.4523.496.433.408.9297-.178 1.2156-.25.1221-.522.2026-.783.3052-.108.0417-.213.0889-.302.1249.316.2581.635.4857.918.7521.578.5495 1.244.8187 2.046.7687.388-.0249.782-.0194 1.174-.011.249.0055.502.0249.746.0693.314.0583.522.2581.583.5745.061.3108-.028.5856-.297.7687-.172.1194-.372.1999-.544.3192-.158.1082-.3.247-.447.3691.766.2553 1.482.4968 2.204.7271.097.0305.222.0194.322-.0139.419-.1332.832-.2942 1.254-.4163.441-.1276.888-.2525 1.341-.3191.319-.0472.657.0194.827.3608.169.3413.111.6632-.139.9491-.139.1582-.292.3053-.425.469-.105.1277-.169.2748-.039.4024.347-.0222.672-.0888.986-.0499 1.057.1304 1.895-.2526 2.653-.9658.46-.4329 1.052-.6411 1.701-.6633.211-.0055.314.0777.394.2442.147.3053.103.6106-.006.9075-.099.2748-.222.5412-.333.8132.5-.1166.977-.2359 1.455-.3414.641-.1388 1.14-.4718 1.484-1.0351.159-.2581.32-.5135.486-.7632.336-.5023.722-.9325 1.365-1.0463.35-.0611.692.161.694.5356 0 .3025-.019.6022-.022.9047 0 .1444.017.2887.028.494.325-.2581.574-.5189.88-.6799.946-.4995 1.396-1.3016 1.606-2.3201.092-.4412.322-.8658.536-1.2683.158-.2969.439-.4718.802-.4107.344.0555.505.297.586.6106.041.1665.069.3358.122.4967.061.1915.136.3802.211.58.449-.6272.879-1.21 1.287-1.8039.345-2.2867-1.54-3.9186-1.537-4.0795z" fill="#5ea3ba"/></svg>