<svg fill="none" height="43" viewBox="0 0 164 43" width="164" xmlns="http://www.w3.org/2000/svg"><g fill="#fff"><path d="m.287659 40.2814h1.545821c0 .4329.43293.7687.96577.7687.50232 0 .88528-.2553.88528-.6993 0-.2664-.14707-.5107-.7493-.7077l-.8076-.247c-1.495842-.4052-1.781669-1.321-1.781669-1.9593 0-1.2211 1.043479-2.0786 2.392239-2.0786 1.29881 0 2.29509.777 2.29509 2.098h-1.54579c0-.4052-.24701-.7493-.77708-.7493-.48289 0-.79648.3247-.79648.6994 0 .1387.03886.444.66883.6188l.7077.2276c.96578.2942 1.95096.7882 1.95096 2.0176 0 1.457-1.25996 2.1064-2.50048 2.1064-1.44867.0028-2.453291-.8437-2.453291-2.0953z"/><path d="m7.40894 42.2602v-6.7827h1.54578v6.7827z"/><path d="m14.1832 35.4775c1.9593 0 3.0916 1.4764 3.0916 3.408 0 1.9205-1.1323 3.3775-3.0916 3.3775h-2.6781v-6.7827h2.6781zm0 5.4339c1.013 0 1.5347-.9741 1.5347-2.0287 0-1.0629-.5217-2.0592-1.5347-2.0592h-1.1323v4.0852h1.1323z"/><path d="m19.4506 42.2602v-6.7827h1.5458v6.7827z"/><path d="m27.1296 35.4775h1.5459v6.7827h-1.3599l-2.2257-3.8992v3.8992h-1.5458v-6.7827h1.4181l2.1647 3.8493v-3.8493z"/><path d="m30.8235 38.8744c0-1.9288 1.5263-3.5162 3.4857-3.5162 1.074 0 2.0092.4523 2.6004 1.1628l-1.1435.9547c-.3635-.4247-.8769-.68-1.4569-.68-1.0935 0-1.9288.9464-1.9288 2.0759 0 1.1128.8187 2.1258 1.9787 2.1258.7577 0 1.5958-.4218 1.5958-1.0934h-1.9094v-1.2517h3.5939c0 2.5699-1.4264 3.7216-3.2386 3.7216-2.0898.0056-3.5773-1.5902-3.5773-3.4995z"/><path d="m12.5986 30.9456-5.6365-8.6337h-1.14061v8.6337h-5.600421v-24.58012h10.060231c5.7086 0 8.2784 4.06572 8.2784 8.13422 0 3.4607-2.5698 6.7798-5.7447 7.4931l6.3137 8.9556h-6.5301zm-6.77711-19.693v6.6356h3.56893c2.46158 0 3.53288-1.6069 3.53288-3.247 0-1.6402-1.1046-3.3886-3.38856-3.3886z"/><path d="m27.1352 26.0585h10.4903v4.8871h-16.0907v-24.58012h15.7688v4.88712h-10.1684v5.0648h8.9195v5.0315h-8.9195z"/><path d="m46.201 26.0585h9.025v4.8871h-14.6282v-24.58012h5.6004v19.69302z"/><path d="m57.9651 30.9456v-24.58012h5.6004v24.58012z"/><path d="m84.4353 30.9456-1.8539-5.7086h-8.6337l-1.8206 5.7086h-5.9945l9.0972-24.58012h6.1l9.0611 24.58012zm-8.9557-10.5597h5.531l-2.7836-8.6698z"/><path d="m105.874 6.36548h5.6v24.58012h-4.923l-8.062-14.1286v14.1286h-5.6004v-24.58012h5.137l7.8484 13.94822z"/><path d="m152.717 26.0585h10.49v4.8871h-16.091v-24.58012h15.769v4.88712h-10.168v5.0648h8.919v5.0315h-8.919z"/><path d="m139.326 35.9827c-.055.0471-.108.0943-.169.1415l-1.648 1.2988-.084-1.4376h-.768c-.486.6439-1.144 1.0768-1.979 1.26-.322.0694-.644.1471-.971.2248l-2.543.5994.864-2.0842h-.02c-.008.0084-.017.0139-.025.0222-1.068 1.0074-2.226 1.4182-3.535 1.2572-.089-.0111-.25.0083-.408.0222-.123.0139-.247.025-.375.0333l-.491.0305-.347-.3469c-.247-.2442-.411-.6133-.386-1.0185h-85.8293v5.6143h122.6093v-5.6143h-23.895z"/></g><path d="m142.973 26.3803c-.003 0-.003 0 0 0l-4.632-3.2248c-1.365 2.1259-3.377 3.4163-6.15 3.4163-4.479 0-7.515-3.6438-7.515-7.9704s3.15-7.8567 7.554-7.8567c2.734 0 4.746 1.2905 6.111 3.4163l4.632-3.2248c-.006-.0083-.011-.0166-.019-.025l.013.0084c-.008-.0056-.016-.0167-.024-.025-.034-.0472-.067-.0916-.1-.1388-.281-.5134-.514-2.02033.599-3.10544.111-.16374.325-.28862.516-.36355.347-.13876.713-.22757 1.11-.35245-.621-.44681-1.171-.8631-1.742-1.24885-.181-.12211-.408-.22202-.619-.23312-.611-.03608-1.221-.00833-1.835-.02776-.402-.01387-.802-.06383-1.135-.33025-.391-.31082-.408-.67993-.025-1.00741.189-.16373.408-.29139.605-.4468.131-.10269.247-.22202.364-.33026-.403-.15263-.763-.27197-1.108-.42738-.41-.18317-.84-.32747-1.282-.23867-.652.13321-1.29.34413-1.937.50786-.336.08604-.683.19982-1.021.1915-.552-.01388-.783-.40241-.58-.9186.094-.23867.252-.45237.397-.66883.119-.18039.258-.34413.416-.55783-.672 0-1.282.02221-1.89-.00832-.475-.0222-.858.14986-1.216.42739-.222.17206-.427.36633-.66.52174-.391.2581-.774.54394-1.202.72988-.61.26643-1.11-.16096-.988-.81313.078-.41629.206-.82425.317-1.25718-.075.011101-.156.013869-.228.036071-.627.208139-1.254.416289-1.876.638309-.094.0333-.186.11378-.247.19426-.405.53562-.783 1.09899-1.215 1.6124-.234.27475-.528.54117-.85.68826-.585.26642-.927.0111-.943-.63275-.009-.358-.003-.71323-.003-1.10731-.103.0444-.172.06383-.228.10268-.463.33025-.913.68548-1.393.99353-.355.22757-.538.54117-.655.9297-.172.56614-.347 1.13507-.555 1.68734-.086.22757-.233.45236-.408.61887-.41.39131-.988.23589-1.179-.29695-.061-.16929-.092-.34968-.153-.51897-.066-.18594-.155-.36077-.222-.51341-.23.2692-.416.53006-.644.74653-.558.53007-.816 1.1767-.829 1.93711-.012.5939-.017 1.1878-.042 1.77892-.028.59947-.225.91587-.597 1.00737-.402.0999-.666-.0693-1.002-.6327-.13-.21926-.28-.4274-.433-.65219-.219.57447-.432 1.09339-.616 1.62069-.141.4135-.191.8437-.058 1.2739.139.4412.319.8686.433 1.3154.103.4135.144.8437.2 1.2711.011.0777-.028.1831-.081.2414-.358.4052-.735.4385-1.162.1083-.192-.1471-.37-.3109-.564-.4496-.066-.0472-.164-.05-.244-.075-.022.0805-.058.161-.064.2443-.011.2497.022.5078-.019.7493-.167.9352.113 1.7206.738 2.4089.08.0888.158.1831.225.283.211.3053.444.5967.619.9214.194.3552.23.7521-.07 1.0685-.266.2803-.633.2137-.963.1221-.302-.0833-.594-.2137-.918-.333.016.0749.025.1304.041.1859.186.5939.391 1.1822.55 1.7845.077.2914.213.5106.458.6743.358.2415.735.458 1.065.7327.375.3081.761.6272 1.049 1.0129.333.4496.092.9658-.455 1.063-.261.0471-.535.0222-.805.0222-.144 0-.291-.0195-.466-.0306.183.3303.344.6272.508.9214.078.1415.153.2831.239.4191.274.4385.655.7687 1.138.9436.469.1692.962.2692 1.434.4384.314.1138.65.2387.897.4524.496.4329.408.9297-.178 1.2155-.25.1221-.522.2026-.783.3053-.108.0417-.213.0888-.302.1249.316.2581.635.4857.919.7521.577.5495 1.243.8187 2.045.7687.388-.0249.783-.0194 1.174-.0111.25.0056.502.025.746.0694.314.0583.522.2581.583.5745.061.3108-.028.5855-.297.7687-.172.1193-.372.1998-.544.3192-.158.1082-.299.247-.447.3691.766.2553 1.482.4967 2.204.7271.097.0305.222.0194.322-.0139.419-.1332.832-.2942 1.254-.4163.442-.1276.888-.2525 1.341-.3191.319-.0472.657.0194.827.3608.169.3413.111.6632-.139.9491-.139.1582-.291.3052-.425.469-.105.1276-.169.2747-.038.4024.346-.0222.671-.0888.985-.05 1.057.1305 1.895-.2525 2.653-.9657.461-.433 1.052-.6411 1.701-.6633.211-.0056.314.0777.394.2442.147.3053.103.6105-.005.9075-.1.2747-.222.5412-.333.8132.499-.1166.976-.236 1.454-.3414.641-.1388 1.14-.4718 1.485-1.0352.158-.2581.319-.5134.485-.7632.336-.5023.722-.9324 1.366-1.0462.349-.0611.691.1609.693.5356 0 .3025-.019.6022-.022.9047 0 .1443.017.2887.028.494.325-.2581.574-.5189.88-.6799.946-.4995 1.396-1.3016 1.607-2.3201.091-.4413.321-.8659.535-1.2683.158-.2969.439-.4718.802-.4107.344.0555.505.2969.586.6105.041.1665.069.3358.122.4968.061.1915.136.3802.211.58.449-.6272.88-1.21 1.288-1.8039.344-2.2868-1.541-3.9186-1.538-4.0796z" fill="#5ea3ba"/></svg>